<?xml version="1.0" encoding="UTF-8"?>
<svg xmlns="http://www.w3.org/2000/svg" viewBox="0 0 1592 378" width="1592" height="378">
  <title>carbonflow black logo</title>
  <path d="M 1388 155 L 1395 176 L 1397 179 L 1414 232 L 1416 235 L 1419 247 L 1426 264 L 1457 264 L 1458 263 L 1465 242 L 1465 239 L 1476 209 L 1476 206 L 1480 199 L 1483 203 L 1485 212 L 1502 263 L 1503 264 L 1534 264 L 1571 156 L 1570 154 L 1543 154 L 1542 155 L 1536 173 L 1536 176 L 1534 179 L 1533 185 L 1528 197 L 1522 220 L 1519 225 L 1516 222 L 1495 155 L 1494 154 L 1467 154 L 1459 178 L 1457 181 L 1456 187 L 1444 223 L 1442 225 L 1440 223 L 1419 156 L 1417 154 L 1389 154 Z M 998 154 L 997 155 L 997 263 L 998 264 L 1013 264 L 1014 263 L 1014 206 L 1015 205 L 1015 198 L 1020 185 L 1029 175 L 1036 171 L 1042 169 L 1058 169 L 1062 170 L 1072 176 L 1077 182 L 1081 192 L 1081 199 L 1082 200 L 1082 263 L 1083 264 L 1098 264 L 1099 263 L 1099 197 L 1095 179 L 1088 167 L 1078 159 L 1064 154 L 1043 154 L 1035 156 L 1027 160 L 1016 170 L 1014 168 L 1014 155 L 1013 154 Z M 897 156 L 886 161 L 879 166 L 872 173 L 865 184 L 860 201 L 860 216 L 864 233 L 871 245 L 882 256 L 893 262 L 908 266 L 924 266 L 934 264 L 951 255 L 960 246 L 968 232 L 972 216 L 972 204 L 969 190 L 964 179 L 957 170 L 949 163 L 938 157 L 927 154 L 905 154 Z M 914 168 L 925 169 L 938 175 L 948 186 L 952 194 L 954 202 L 954 219 L 952 226 L 946 237 L 936 246 L 926 250 L 921 250 L 920 251 L 905 250 L 896 246 L 885 236 L 882 231 L 877 213 L 878 200 L 884 185 L 897 173 L 907 169 L 913 169 Z M 710 154 L 700 154 L 692 156 L 681 162 L 673 171 L 671 169 L 671 156 L 670 155 L 656 155 L 654 158 L 655 160 L 654 162 L 655 163 L 654 165 L 655 166 L 654 168 L 655 221 L 654 222 L 655 223 L 655 263 L 656 264 L 671 264 L 672 263 L 672 203 L 673 202 L 673 196 L 676 188 L 680 182 L 689 174 L 701 170 L 710 170 L 711 169 L 711 155 Z M 1307 154 L 1296 158 L 1286 164 L 1274 176 L 1269 185 L 1266 193 L 1265 203 L 1264 204 L 1264 215 L 1269 235 L 1276 246 L 1283 253 L 1290 258 L 1303 264 L 1312 266 L 1334 266 L 1349 262 L 1364 253 L 1373 243 L 1379 232 L 1383 216 L 1383 203 L 1380 189 L 1375 179 L 1368 170 L 1360 163 L 1349 157 L 1335 153 Z M 1320 178 L 1332 179 L 1341 184 L 1347 191 L 1351 201 L 1351 207 L 1352 208 L 1351 219 L 1347 228 L 1342 234 L 1336 238 L 1329 240 L 1314 239 L 1307 235 L 1301 229 L 1297 221 L 1295 213 L 1295 204 L 1300 191 L 1309 182 Z M 533 166 L 530 169 L 538 181 L 548 174 L 561 169 L 578 168 L 589 171 L 594 174 L 600 181 L 603 189 L 603 195 L 604 196 L 604 200 L 602 202 L 572 202 L 571 201 L 556 202 L 548 204 L 537 210 L 530 218 L 527 226 L 527 240 L 529 246 L 534 254 L 543 261 L 553 265 L 574 266 L 590 262 L 598 257 L 603 251 L 605 253 L 605 263 L 608 265 L 609 264 L 611 265 L 620 265 L 621 264 L 621 249 L 620 248 L 621 246 L 621 200 L 620 199 L 620 187 L 618 179 L 612 168 L 607 163 L 597 157 L 587 154 L 577 154 L 576 153 L 560 154 L 552 156 Z M 544 230 L 548 221 L 553 217 L 560 214 L 602 214 L 604 216 L 603 232 L 600 239 L 592 247 L 579 252 L 561 252 L 554 249 L 546 241 L 544 235 Z M 453 154 L 442 157 L 432 162 L 418 175 L 411 188 L 408 198 L 408 206 L 407 207 L 408 221 L 413 236 L 418 244 L 425 252 L 433 258 L 441 262 L 457 266 L 478 265 L 487 262 L 497 256 L 503 250 L 508 242 L 505 239 L 496 234 L 485 245 L 474 250 L 459 251 L 458 250 L 453 250 L 444 246 L 432 235 L 429 230 L 425 212 L 426 199 L 429 190 L 434 182 L 443 174 L 455 169 L 467 168 L 479 171 L 486 175 L 496 185 L 505 179 L 508 175 L 498 164 L 486 157 L 476 154 L 467 154 L 466 153 Z M 1212 113 L 1211 114 L 1211 263 L 1212 264 L 1242 264 L 1243 263 L 1243 114 L 1242 113 Z M 1200 116 L 1184 111 L 1169 111 L 1153 116 L 1144 123 L 1137 134 L 1134 145 L 1134 156 L 1132 158 L 1119 158 L 1118 159 L 1118 181 L 1119 182 L 1132 182 L 1134 184 L 1134 263 L 1135 264 L 1165 264 L 1166 263 L 1166 184 L 1168 182 L 1193 182 L 1194 181 L 1194 159 L 1193 158 L 1168 158 L 1166 156 L 1166 147 L 1168 142 L 1175 136 L 1180 135 L 1181 136 L 1186 136 L 1192 140 L 1201 117 Z M 734 111 L 732 113 L 732 261 L 734 264 L 747 264 L 748 263 L 748 249 L 750 247 L 758 256 L 770 263 L 782 266 L 803 265 L 819 258 L 831 247 L 839 233 L 842 223 L 842 217 L 843 216 L 842 198 L 839 187 L 834 177 L 819 162 L 810 157 L 800 154 L 778 154 L 769 157 L 760 162 L 751 171 L 749 169 L 749 148 L 750 147 L 749 146 L 750 145 L 750 140 L 749 139 L 749 112 L 748 111 Z M 785 168 L 796 169 L 802 171 L 813 178 L 819 185 L 823 193 L 826 208 L 825 209 L 826 210 L 825 211 L 824 224 L 817 237 L 807 246 L 798 250 L 792 250 L 791 251 L 778 250 L 765 244 L 755 233 L 751 224 L 749 214 L 751 196 L 754 188 L 758 182 L 765 175 L 770 172 L 778 169 L 784 169 Z M 382 106 L 375 104 L 355 104 L 345 106 L 324 114 L 308 125 L 294 139 L 280 160 L 269 183 L 246 241 L 236 261 L 224 279 L 206 298 L 197 305 L 175 316 L 157 320 L 135 320 L 117 316 L 104 310 L 93 303 L 78 289 L 69 277 L 62 263 L 58 251 L 57 238 L 56 237 L 56 224 L 57 223 L 58 211 L 63 196 L 71 181 L 78 172 L 97 155 L 112 147 L 124 143 L 134 142 L 135 141 L 157 141 L 158 142 L 168 143 L 183 149 L 200 117 L 193 113 L 170 106 L 157 105 L 156 104 L 138 104 L 137 105 L 129 105 L 111 109 L 99 113 L 83 121 L 67 132 L 45 155 L 37 167 L 25 195 L 22 207 L 21 224 L 20 225 L 21 249 L 25 267 L 35 291 L 47 309 L 70 332 L 84 341 L 98 348 L 112 353 L 133 357 L 160 357 L 184 352 L 208 341 L 222 332 L 235 321 L 249 306 L 262 288 L 282 249 L 303 195 L 311 179 L 320 165 L 329 155 L 340 147 L 351 142 L 363 141 L 366 138 L 383 108 Z M 428 33 L 426 31 L 421 30 L 418 28 L 392 22 L 374 21 L 373 20 L 351 21 L 350 22 L 334 24 L 311 31 L 292 40 L 279 48 L 266 58 L 245 79 L 234 93 L 222 112 L 211 134 L 209 136 L 208 140 L 206 142 L 205 146 L 203 148 L 197 161 L 197 163 L 183 189 L 173 203 L 159 217 L 145 226 L 132 231 L 117 234 L 101 234 L 86 231 L 77 227 L 75 228 L 74 233 L 75 234 L 76 247 L 79 257 L 84 267 L 92 270 L 100 270 L 101 271 L 127 270 L 140 267 L 154 262 L 177 249 L 196 232 L 210 214 L 221 196 L 234 170 L 234 168 L 236 166 L 236 164 L 256 126 L 274 101 L 289 86 L 307 73 L 323 65 L 348 58 L 353 58 L 354 57 L 383 57 L 398 60 L 409 64 L 412 61 Z" fill="#000000" fill-rule="evenodd"/>
</svg>
